<svg width="223" height="60" viewBox="0 0 223 60" fill="none" xmlns="http://www.w3.org/2000/svg">
<rect width="223" height="60" rx="12.3636" fill="url(#paint0_linear_28_290)"/>
<rect x="21.0723" y="7.27539" width="45.7539" height="45.7031" rx="9.26758" stroke="white" stroke-width="0.660156"/>
<circle cx="44.0254" cy="29.9746" r="21.125" stroke="url(#paint1_linear_28_290)" stroke-width="0.152344"/>
<circle cx="44" cy="30" r="16.7751" stroke="url(#paint2_linear_28_290)" stroke-width="0.168594"/>
<line x1="23.8904" y1="40.1817" x2="35.1643" y2="40.1817" stroke="url(#paint3_linear_28_290)" stroke-opacity="0.5" stroke-width="0.152344" stroke-dasharray="0.2 0.2"/>
<line y1="-0.0761719" x2="11.2739" y2="-0.0761719" transform="matrix(-1 0 0 1 64.1099 40.2578)" stroke="url(#paint4_linear_28_290)" stroke-opacity="0.5" stroke-width="0.152344" stroke-dasharray="0.2 0.2"/>
<path d="M58.4557 28.0967L58.3959 28.292L58.5753 28.3895C59.528 28.9071 60.2985 29.6536 60.8317 30.5736C61.3656 31.4949 61.6641 32.5951 61.6641 33.8217C61.6641 35.0483 61.3656 36.1485 60.8317 37.0698C60.2978 37.9911 59.5259 38.7384 58.5714 39.256C57.6167 39.7738 56.4758 40.0637 55.2036 40.0637H32.8354C31.5633 40.0637 30.4223 39.7738 29.4676 39.256C28.5132 38.7384 27.7412 37.9911 27.2074 37.0698C26.6735 36.1485 26.3749 35.0483 26.3749 33.8217C26.3749 32.5951 26.6735 31.4949 27.2074 30.5736C27.7412 29.6523 28.5132 28.905 29.4676 28.3874C29.7689 28.224 30.0885 28.0833 30.4249 27.9673L30.6215 27.8995L30.5906 27.6939C30.5462 27.3985 30.5232 27.0963 30.5232 26.7887C30.5232 23.3491 33.4078 20.5467 36.9837 20.5467C38.8408 20.5467 40.5131 21.3034 41.6909 22.5134L41.9502 22.7798L42.099 22.4391C43.417 19.4227 46.5073 17.3007 50.1148 17.3007C54.9261 17.3007 58.8122 21.0719 58.8122 25.7067C58.8122 26.5373 58.6876 27.3394 58.4557 28.0967Z" fill="url(#paint5_linear_28_290)" fill-opacity="0.29" stroke="white" stroke-width="0.499847"/>
<path d="M83.5811 36.2109C86.6309 36.2109 88.5381 34.6816 88.5381 32.2559C88.5381 30.375 87.4131 29.3027 84.7412 28.749L83.3789 28.4678C81.7969 28.1338 81.1641 27.5801 81.1641 26.7188C81.1641 25.6553 82.166 24.9873 83.5723 24.9873C84.7588 24.9873 85.6641 25.4443 86.0947 26.5166C86.332 27.0088 86.6572 27.2373 87.1846 27.2373C87.7734 27.2373 88.1689 26.8594 88.1689 26.3057C88.1689 26.0947 88.1426 25.9277 88.0898 25.7871C87.5713 24.1084 85.8311 23.1064 83.5898 23.1064C80.8389 23.1064 78.8789 24.6182 78.8789 26.8506C78.8789 28.7051 80.0654 29.9004 82.6055 30.4189L83.9678 30.7002C85.6201 31.043 86.2529 31.6055 86.2529 32.5195C86.2529 33.5742 85.1807 34.3301 83.6514 34.3301C82.2979 34.3301 81.208 33.8379 80.8125 32.7393C80.5664 32.2295 80.25 32.0273 79.749 32.0273C79.1514 32.0273 78.7471 32.4316 78.7471 33.0645C78.7471 33.2754 78.791 33.5039 78.8701 33.7148C79.3623 35.1562 81.0498 36.2109 83.5811 36.2109ZM94.1631 36.1846C95.9385 36.1846 97.3271 35.4902 97.9424 34.3037C98.0391 34.1104 98.0918 33.917 98.0918 33.75C98.0918 33.2227 97.7051 32.9062 97.2129 32.9062C96.9053 32.9062 96.7031 33.0029 96.4746 33.2578C95.7715 34.1543 95.1299 34.4971 94.1455 34.4971C92.7217 34.4971 91.8164 33.4951 91.8164 31.9395V31.8691H97.3096C97.96 31.8691 98.3291 31.4824 98.3291 30.832C98.3291 28.3008 96.5889 26.4902 94.04 26.4902C91.3506 26.4902 89.6367 28.4062 89.6367 31.377C89.6367 34.4004 91.3154 36.1846 94.1631 36.1846ZM91.834 30.4277C91.9219 29.0918 92.8184 28.1865 94.0488 28.1865C95.2793 28.1865 96.1406 29.0742 96.1846 30.4277H91.834ZM100.834 36.1758C101.476 36.1758 101.933 35.7627 101.933 35.0244V30.6035C101.933 29.2676 102.732 28.3623 103.989 28.3623C105.237 28.3623 105.853 29.1006 105.853 30.4189V35.0244C105.853 35.7627 106.31 36.1758 106.951 36.1758C107.593 36.1758 108.041 35.7627 108.041 35.0244V29.9795C108.041 27.8262 106.872 26.5078 104.815 26.5078C103.383 26.5078 102.416 27.1494 101.915 28.2568H101.871V27.6064C101.871 26.9297 101.432 26.499 100.79 26.499C100.14 26.499 99.7441 26.9297 99.7441 27.6064V35.0244C99.7441 35.7627 100.192 36.1758 100.834 36.1758ZM113.279 36.1494C114.721 36.1494 115.723 35.4199 116.171 34.3477H116.215V35.0771C116.215 35.7891 116.689 36.1758 117.322 36.1758C117.955 36.1758 118.403 35.7803 118.403 35.0771V24.293C118.403 23.5547 117.946 23.1416 117.305 23.1416C116.663 23.1416 116.215 23.5547 116.215 24.293V28.248H116.162C115.67 27.2197 114.615 26.5254 113.279 26.5254C110.933 26.5254 109.412 28.3887 109.412 31.333C109.412 34.2949 110.933 36.1494 113.279 36.1494ZM113.938 34.3564C112.523 34.3564 111.653 33.1963 111.653 31.3418C111.653 29.4961 112.532 28.3271 113.938 28.3271C115.318 28.3271 116.224 29.5137 116.224 31.3418C116.224 33.1875 115.318 34.3564 113.938 34.3564ZM125.197 36.1494C125.909 36.1494 126.331 35.7188 126.331 34.9717V30.8232H130.805C131.402 30.8232 131.798 30.4717 131.798 29.9004C131.798 29.3291 131.402 28.9775 130.805 28.9775H126.331V25.2334H131.262C131.877 25.2334 132.299 24.8643 132.299 24.2754C132.299 23.6865 131.886 23.3174 131.262 23.3174H125.197C124.494 23.3174 124.063 23.7568 124.063 24.4951V34.9717C124.063 35.7188 124.494 36.1494 125.197 36.1494ZM137.423 36.1846C139.198 36.1846 140.587 35.4902 141.202 34.3037C141.299 34.1104 141.352 33.917 141.352 33.75C141.352 33.2227 140.965 32.9062 140.473 32.9062C140.165 32.9062 139.963 33.0029 139.734 33.2578C139.031 34.1543 138.39 34.4971 137.405 34.4971C135.981 34.4971 135.076 33.4951 135.076 31.9395V31.8691H140.569C141.22 31.8691 141.589 31.4824 141.589 30.832C141.589 28.3008 139.849 26.4902 137.3 26.4902C134.61 26.4902 132.896 28.4062 132.896 31.377C132.896 34.4004 134.575 36.1846 137.423 36.1846ZM135.094 30.4277C135.182 29.0918 136.078 28.1865 137.309 28.1865C138.539 28.1865 139.4 29.0742 139.444 30.4277H135.094ZM147.144 36.1846C148.919 36.1846 150.308 35.4902 150.923 34.3037C151.02 34.1104 151.072 33.917 151.072 33.75C151.072 33.2227 150.686 32.9062 150.193 32.9062C149.886 32.9062 149.684 33.0029 149.455 33.2578C148.752 34.1543 148.11 34.4971 147.126 34.4971C145.702 34.4971 144.797 33.4951 144.797 31.9395V31.8691H150.29C150.94 31.8691 151.31 31.4824 151.31 30.832C151.31 28.3008 149.569 26.4902 147.021 26.4902C144.331 26.4902 142.617 28.4062 142.617 31.377C142.617 34.4004 144.296 36.1846 147.144 36.1846ZM144.814 30.4277C144.902 29.0918 145.799 28.1865 147.029 28.1865C148.26 28.1865 149.121 29.0742 149.165 30.4277H144.814ZM156.205 36.1494C157.646 36.1494 158.648 35.4199 159.097 34.3477H159.141V35.0771C159.141 35.7891 159.615 36.1758 160.248 36.1758C160.881 36.1758 161.329 35.7803 161.329 35.0771V24.293C161.329 23.5547 160.872 23.1416 160.23 23.1416C159.589 23.1416 159.141 23.5547 159.141 24.293V28.248H159.088C158.596 27.2197 157.541 26.5254 156.205 26.5254C153.858 26.5254 152.338 28.3887 152.338 31.333C152.338 34.2949 153.858 36.1494 156.205 36.1494ZM156.864 34.3564C155.449 34.3564 154.579 33.1963 154.579 31.3418C154.579 29.4961 155.458 28.3271 156.864 28.3271C158.244 28.3271 159.149 29.5137 159.149 31.3418C159.149 33.1875 158.244 34.3564 156.864 34.3564ZM164.291 36.1758C164.924 36.1758 165.372 35.7803 165.372 35.0771V34.4092H165.416C165.97 35.4902 167.016 36.1494 168.378 36.1494C170.742 36.1494 172.228 34.3213 172.228 31.3418C172.228 28.3623 170.733 26.5254 168.387 26.5254C167.06 26.5254 166.005 27.1934 165.469 28.2832H165.416V24.293C165.416 23.5547 164.968 23.1416 164.326 23.1416C163.685 23.1416 163.228 23.5547 163.228 24.293V35.0771C163.228 35.7891 163.658 36.1758 164.291 36.1758ZM167.71 34.3564C166.356 34.3564 165.407 33.1699 165.407 31.3418C165.407 29.5312 166.356 28.3271 167.71 28.3271C169.107 28.3271 169.986 29.4961 169.986 31.3418C169.986 33.1963 169.107 34.3564 167.71 34.3564ZM176.376 36.1494C177.58 36.1494 178.749 35.5254 179.285 34.5146H179.329V35.165C179.364 35.8154 179.777 36.1758 180.375 36.1758C180.99 36.1758 181.438 35.7803 181.438 35.0771V29.584C181.438 27.7119 179.936 26.4902 177.624 26.4902C175.84 26.4902 174.398 27.1758 173.924 28.2568C173.827 28.459 173.774 28.6523 173.774 28.8545C173.774 29.3818 174.161 29.7334 174.697 29.7334C175.066 29.7334 175.356 29.5928 175.585 29.2939C176.13 28.4941 176.684 28.2041 177.536 28.2041C178.617 28.2041 179.276 28.7666 179.276 29.7422V30.4102L176.807 30.5508C174.539 30.6914 173.265 31.6846 173.265 33.3369C173.265 35.0156 174.574 36.1494 176.376 36.1494ZM177.044 34.4971C176.095 34.4971 175.453 34.0137 175.453 33.249C175.453 32.5107 176.06 32.0361 177.114 31.9658L179.276 31.834V32.5459C179.276 33.6709 178.274 34.4971 177.044 34.4971ZM187.301 36.1846C189.059 36.1846 190.605 35.2793 191.124 34.0049C191.212 33.7939 191.256 33.6094 191.256 33.4424C191.256 32.8975 190.852 32.5459 190.333 32.5459C189.858 32.5459 189.621 32.7305 189.322 33.2227C188.9 33.9697 188.303 34.418 187.336 34.418C185.947 34.418 185.042 33.2754 185.042 31.3418C185.042 29.4346 185.938 28.2656 187.345 28.2656C188.25 28.2656 188.865 28.6699 189.331 29.5225C189.586 29.9619 189.85 30.1465 190.289 30.1465C190.816 30.1465 191.229 29.8125 191.229 29.2676C191.229 29.1094 191.186 28.9248 191.115 28.7402C190.667 27.4307 189.111 26.4902 187.283 26.4902C184.567 26.4902 182.818 28.3799 182.818 31.3506C182.818 34.3389 184.576 36.1846 187.301 36.1846ZM193.893 36.1758C194.534 36.1758 194.982 35.7627 194.982 35.0244V32.8008L195.809 32.0273L198.604 35.5693C198.92 36.0264 199.175 36.1758 199.605 36.1758C200.212 36.1758 200.643 35.7715 200.643 35.2002C200.643 34.9189 200.572 34.7256 200.344 34.4092L197.426 30.7617L200.08 28.248C200.379 27.9668 200.476 27.7646 200.476 27.4395C200.476 26.9121 200.062 26.499 199.518 26.499C199.184 26.499 198.946 26.6221 198.665 26.9209L195.009 30.5332H194.982V24.293C194.982 23.5547 194.534 23.1416 193.893 23.1416C193.251 23.1416 192.794 23.5547 192.794 24.293V35.0244C192.794 35.7627 193.251 36.1758 193.893 36.1758Z" fill="white"/>
<defs>
<linearGradient id="paint0_linear_28_290" x1="111.5" y1="0" x2="111.5" y2="60" gradientUnits="userSpaceOnUse">
<stop stop-color="#19B7EF"/>
<stop offset="1" stop-color="#1763E1"/>
</linearGradient>
<linearGradient id="paint1_linear_28_290" x1="44.0254" y1="8.77344" x2="44.0254" y2="51.1758" gradientUnits="userSpaceOnUse">
<stop stop-color="white"/>
<stop offset="0.490084" stop-color="white" stop-opacity="0.13"/>
<stop offset="1" stop-color="white"/>
</linearGradient>
<linearGradient id="paint2_linear_28_290" x1="44" y1="13.1406" x2="44" y2="46.8594" gradientUnits="userSpaceOnUse">
<stop stop-color="white"/>
<stop offset="0.490084" stop-color="white" stop-opacity="0.13"/>
<stop offset="1" stop-color="white"/>
</linearGradient>
<linearGradient id="paint3_linear_28_290" x1="22.235" y1="40.2552" x2="35.164" y2="40.2552" gradientUnits="userSpaceOnUse">
<stop offset="0.125" stop-color="white" stop-opacity="0"/>
<stop offset="1" stop-color="white"/>
</linearGradient>
<linearGradient id="paint4_linear_28_290" x1="-1.65541" y1="-0.00265322" x2="11.2737" y2="-0.00262604" gradientUnits="userSpaceOnUse">
<stop offset="0.125" stop-color="white" stop-opacity="0"/>
<stop offset="1" stop-color="white"/>
</linearGradient>
<linearGradient id="paint5_linear_28_290" x1="56.6581" y1="20.2386" x2="27.1762" y2="37.2286" gradientUnits="userSpaceOnUse">
<stop offset="0.00917948" stop-color="white"/>
<stop offset="1" stop-color="white" stop-opacity="0"/>
</linearGradient>
</defs>
</svg>
